<?xml version="1.0" encoding="UTF-8" standalone="no"?><!-- Generator: Gravit.io --><svg xmlns="http://www.w3.org/2000/svg" xmlns:xlink="http://www.w3.org/1999/xlink" style="isolation:isolate" viewBox="0 0 3456 3257" width="3456pt" height="3257pt"><defs><clipPath id="_clipPath_VGEACWKJGu7cplbJNhBiri8wcnMWBuPV"><rect width="3456" height="3257"/></clipPath></defs><g clip-path="url(#_clipPath_VGEACWKJGu7cplbJNhBiri8wcnMWBuPV)"><circle vector-effect="non-scaling-stroke" cx="1728" cy="1628.5" r="1628.5" fill="rgb(235,235,235)"/><clipPath id="_clipPath_YNsmkz2ePYwIIWnStFT5N0BqLRvk1wfz"><circle vector-effect="non-scaling-stroke" cx="1728" cy="1628.5" r="1628.5" fill="rgb(235,235,235)"/></clipPath><g clip-path="url(#_clipPath_YNsmkz2ePYwIIWnStFT5N0BqLRvk1wfz)"><g><path d=" M 0.5 -860 L 3456 -859.5 L 3455.5 3748 L 0 3747.5 L 0.5 -860 Z " fill="rgb(253,253,253)"/><path d=" M 620.5 947 L 640 947.5 L 620.5 948 L 620.5 947 Z  M 994.5 947 L 1015 947.5 L 994.5 948 L 994.5 947 Z  M 1870.5 947 L 1890 947.5 L 1870.5 948 L 1870.5 947 Z " fill-rule="evenodd" fill="rgb(137,137,137)"/><path d=" M 611.5 948 C 671.858 947.941 737.119 961.421 778 1009.5 L 778 1009.5 L 735.5 1063 Q 700.169 1014.331 616.5 1014 Q 561.517 1022.517 533 1057.5 Q 501.668 1088.668 502 1151.5 Q 508.226 1209.274 542.5 1239 Q 574.315 1275.685 645.5 1273 Q 703.263 1263.263 735.5 1228 L 769 1264.5 L 775.5 1272 Q 778.5 1272.5 778 1276.5 Q 725.27 1342.27 606.5 1342 Q 521.091 1330.409 477 1277.5 Q 426.713 1229.287 427 1130.5 Q 436.388 1045.388 487.5 1002 Q 531.891 957.391 611.5 948 Z  M 986.5 948 Q 1110.131 946.869 1163 1016.5 Q 1207.452 1062.048 1210 1149.5 Q 1201.989 1247.989 1141.5 1294 Q 1090.095 1345.595 983.5 1342 Q 896.383 1330.617 851 1277.5 Q 800.022 1229.478 800 1130.5 Q 809.131 1047.131 858.5 1004 Q 903.799 957.299 986.5 948 Z  M 1861.5 948 C 1921.858 947.941 1987.119 961.421 2028 1009.5 L 2028 1009.5 L 1985.5 1063 Q 1950.169 1014.331 1866.5 1014 Q 1811.517 1022.517 1783 1057.5 Q 1751.668 1088.668 1752 1151.5 Q 1758.226 1209.274 1792.5 1239 Q 1824.315 1275.685 1895.5 1273 Q 1953.263 1263.263 1985.5 1228 L 2019 1264.5 L 2025.5 1272 Q 2028.5 1272.5 2028 1276.5 Q 1975.27 1342.27 1856.5 1342 Q 1771.091 1330.409 1727 1277.5 Q 1676.713 1229.287 1677 1130.5 Q 1686.388 1045.388 1737.5 1002 Q 1781.891 957.391 1861.5 948 Z " fill-rule="evenodd" fill="rgb(23,23,23)"/><path d=" M 1274.5 952 L 1344 952.5 L 1274.5 953 L 1274.5 952 Z  M 1542.5 952 L 1614 952.5 L 1613.5 1337 L 1612.5 953 L 1560.5 953 L 1547.5 953 C 1546.621 953.183 1541.469 954.32 1542.5 952 L 1542.5 952 Z  M 2089.5 952 L 2371 952.5 L 2089.5 953 L 2089.5 952 Z  M 2451.5 952 L 2621 952.5 L 2451.5 953 L 2451.5 952 Z  M 2778.5 952 L 3092 952.5 L 2778.5 953 L 2778.5 952 Z " fill-rule="evenodd" fill="rgb(137,137,137)"/><path d=" M 1274.5 953 L 1345 953.5 L 1541.5 1217 L 1542.5 953 L 1613 953.5 L 1612.5 1337 L 1543 1336.5 L 1346.5 1073 L 1345.5 1337 L 1274 1336.5 L 1274.5 953 Z  M 2089.5 953 L 2371 953.5 L 2370.5 1017 L 2163 1017.5 L 2163.5 1112 L 2349 1112.5 L 2348.5 1176 L 2163 1176.5 L 2163.5 1273 L 2377 1273.5 L 2376.5 1337 L 2089 1336.5 L 2089.5 953 Z  M 2451.5 953 L 2596.5 953 Q 2688.33 949.17 2730 995.5 Q 2763.127 1028.373 2761 1096.5 Q 2756.025 1160.525 2717.5 1191 Q 2681.366 1222.366 2615.5 1224 L 2525 1224.5 L 2524.5 1337 L 2451 1336.5 L 2451.5 953 Z  M 2778.5 953 L 3092 953.5 L 3091.5 1018 L 2972 1018.5 L 2971.5 1337 L 2898 1336.5 L 2897.5 1018 L 2778 1017.5 L 2778.5 953 Z " fill-rule="evenodd" fill="rgb(23,23,23)"/><path d=" M 492.5 997 L 488.5 1002 L 492.5 997 Z  M 1742.5 997 L 1738.5 1002 L 1742.5 997 Z  M 864.5 998 L 859.5 1004 L 864.5 998 Z  M 1149.5 1002 L 1157.5 1011 L 1149.5 1002 Z  M 772.5 1003 L 778.5 1010 L 772.5 1003 Z  M 2022.5 1003 L 2028.5 1010 L 2022.5 1003 Z  M 852.5 1010 L 847.5 1016 L 852.5 1010 Z " fill-rule="evenodd" fill="rgb(137,137,137)"/><path d=" M 996.5 1014 Q 1072.041 1014.959 1104 1059.5 Q 1134.923 1091.077 1134 1154.5 Q 1125.937 1216.437 1086.5 1247 Q 1057 1274.5 1001.5 1276 Q 939.227 1270.273 909 1232.5 Q 873.535 1199.965 876 1129.5 Q 884.778 1073.778 920.5 1045 Q 948.361 1019.361 996.5 1014 Z  M 2525.5 1017 L 2607.5 1017 Q 2654.872 1017.128 2677 1042.5 Q 2692 1059.5 2691 1092.5 Q 2688.87 1126.87 2667.5 1142 Q 2643.535 1160.535 2599.5 1159 L 2525.5 1159 L 2525.5 1017 Z " fill-rule="evenodd" fill="rgb(253,253,253)"/><path d=" M 2610.5 1017 L 2619 1017.5 L 2610.5 1018 L 2610.5 1017 Z  M 2779.5 1018 L 2898 1018.5 L 2779.5 1019 L 2779.5 1018 Z  M 2972.5 1018 L 3092 1018.5 L 2973 1019.5 L 2972.5 1337 L 2972.5 1018 Z  M 1092.5 1047 L 1100.5 1056 L 1092.5 1047 Z  M 720.5 1048 L 725.5 1054 L 720.5 1048 Z  M 1970.5 1048 L 1975.5 1054 L 1970.5 1048 Z  M 915.5 1049 L 910.5 1055 L 915.5 1049 Z  M 730.5 1058 Q 734.75 1066.536 739 1060.5 Q 733.958 1068.75 730.5 1058 Z  M 1980.5 1058 Q 1984.75 1066.536 1989 1060.5 Q 1983.958 1068.75 1980.5 1058 Z  M 1346.5 1073 C 1347.853 1073.615 1348.589 1074.617 1347 1075.5 L 1347 1075.5 L 1346.5 1337 L 1346.5 1073 Z  M 2163.5 1111 L 2302.5 1111 L 2336.5 1111 C 2340.446 1109.872 2347.171 1108.257 2350 1112.5 L 2350 1112.5 L 2350 1159.5 C 2351.479 1164.492 2353.732 1173.195 2348.5 1177 L 2348.5 1177 L 2163 1176.5 L 2349 1175.5 L 2348.5 1112 L 2209.5 1112 L 2175.5 1112 Q 2162.5 1115 2163.5 1111 Z  M 1209.5 1129 L 1210 1138.5 L 1209 1138.5 L 1209.5 1129 Z  M 502.5 1134 L 503 1151.5 L 502 1151.5 L 502.5 1134 Z  M 1752.5 1134 L 1753 1151.5 L 1752 1151.5 L 1752.5 1134 Z  M 2675.5 1134 L 2670.5 1140 L 2675.5 1134 Z  M 875.5 1135 L 876 1152.5 L 875 1152.5 L 875.5 1135 Z  M 1209.5 1150 L 1210 1159.5 L 1209 1159.5 L 1209.5 1150 Z  M 2727.5 1181 L 2722.5 1187 L 2727.5 1181 Z  M 734.5 1228 L 730.5 1233 L 734.5 1228 Z  M 1984.5 1228 L 1980.5 1233 L 1984.5 1228 Z  M 1101.5 1232 L 1090.5 1244 L 1101.5 1232 Z  M 537.5 1233 L 542.5 1239 L 537.5 1233 Z  M 1787.5 1233 L 1792.5 1239 L 1787.5 1233 Z  M 760.5 1255 L 764.5 1260 L 760.5 1255 Z  M 2010.5 1255 L 2014.5 1260 L 2010.5 1255 Z  M 769.5 1265 L 773.5 1270 L 769.5 1265 Z  M 2019.5 1265 L 2023.5 1270 L 2019.5 1265 Z  M 2163.5 1272 L 2322.5 1272 L 2362.5 1272 C 2366.956 1270.7 2374.687 1268.767 2378 1273.5 L 2378 1273.5 L 2377.5 1337 L 2376.5 1273 L 2216.5 1273 L 2177.5 1273 L 2167.5 1273 C 2166.694 1273.161 2162.486 1274.028 2163.5 1272 L 2163.5 1272 Z  M 778.5 1275 L 779 1276.5 L 768 1286.5 L 778.5 1275 Z  M 2028.5 1275 L 2029 1276.5 L 2018 1286.5 L 2028.5 1275 Z  M 1159.5 1276 L 1146.5 1290 L 1159.5 1276 Z  M 613.5 1342 L 641 1342.5 L 613.5 1343 L 613.5 1342 Z  M 990.5 1342 L 1020 1342.5 L 990.5 1343 L 990.5 1342 Z  M 1863.5 1342 L 1891 1342.5 L 1863.5 1343 L 1863.5 1342 Z  M 832.5 1781 L 934.5 1781 L 959.5 1781 C 962.674 1780.134 967.916 1779.026 970 1782.5 L 970 1782.5 L 969.5 1784 L 968.5 1782 L 832 1782.5 L 831.5 1785 L 831 1782.5 L 832.5 1781 Z " fill-rule="evenodd" fill="rgb(137,137,137)"/><path d=" M 832.5 1782 L 969 1782.5 L 1075 2414.5 L 973.5 2415 L 948.5 2245 L 875.5 2245 L 857.5 2245 C 844.366 2241.716 848.938 2258.628 847.943 2268.193 C 842.835 2317.317 836.663 2366.283 828.5 2415 L 828.5 2415 L 730 2414.5 L 803 1961.5 L 824 1831.5 L 829.5 1798 C 829.317 1792.577 829.879 1786.851 832.5 1782 L 832.5 1782 Z " fill="rgb(23,23,23)"/><path d=" M 1120.5 1782 L 1121 2414.5 L 1120 2414.5 L 1120.5 1782 Z " fill="rgb(137,137,137)"/><path d=" M 1121.5 1782 L 1256.5 1782 Q 1343.699 1780.301 1385 1824.5 Q 1431.854 1883.646 1423 1998.5 L 1423 2230.5 Q 1423.837 2332.837 1370.5 2381 Q 1328.357 2417.357 1247.5 2415 L 1121.5 2415 L 1121.5 1782 Z  M 1458.5 1782 L 1563 1782.5 Q 1585.839 1933.161 1603 2089.5 Q 1618.776 2184.724 1627.5 2287 L 1630 2286.5 C 1634.466 2221.536 1644.915 2157.624 1653.547 2093.172 C 1667.419 1989.594 1680.245 1885.896 1691.5 1782 L 1691.5 1782 L 1795 1782.5 L 1715.5 2252 L 1695.5 2370 L 1690.5 2400 L 1687.5 2415 L 1569 2414.5 L 1458.5 1782 Z  M 1839.5 1782 L 2083 1782.5 L 2082.5 1872 L 1974.5 1872 L 1946.5 1872 C 1943.326 1871.134 1938.084 1870.026 1936 1873.5 L 1936 1873.5 L 1936.5 2036 L 2076 2036.5 L 2075.5 2126 L 1936 2126.5 L 1936.5 2325 L 2097 2325.5 C 2095.66 2355.624 2091.929 2385.744 2084.5 2415 L 2084.5 2415 L 1839 2414.5 L 1839.5 1782 Z " fill-rule="evenodd" fill="rgb(23,23,23)"/><path d=" M 2083.5 1782 L 2084 1872.5 L 1937 1873.5 L 1936.5 2036 L 1936 1873.5 C 1938.084 1870.026 1943.326 1871.134 1946.5 1872 L 1946.5 1872 L 1974.5 1872 L 2083 1871.5 L 2083.5 1782 Z " fill="rgb(137,137,137)"/><path d=" M 2143.5 1782 L 2256 1782.5 L 2321 2033.5 C 2338.74 2093.767 2352.693 2155.123 2363.5 2217 L 2363.5 2217 L 2365 2213.5 C 2357.726 2069.971 2356.456 1926.16 2360 1782.5 L 2360 1782.5 L 2448.5 1782 L 2449 2414.5 L 2341.5 2415 Q 2301.12 2267.38 2265.5 2115 Q 2245.105 2043.395 2230.5 1966 L 2230 1978.5 Q 2237.548 2090.952 2234 2214.5 Q 2230 2217.5 2233 2227.5 L 2233 2265.5 L 2232.5 2415 L 2143 2414.5 L 2143.5 1782 Z " fill="rgb(23,23,23)"/><path d=" M 2449.5 1782 L 2450 2414.5 L 2449 2414.5 L 2449.5 1782 Z " fill="rgb(137,137,137)"/><path d=" M 2491.5 1782 L 2792 1782.5 L 2791.5 1872 L 2690 1872.5 L 2689.5 2415 L 2593 2414.5 L 2593 2009.5 L 2593 1907.5 L 2593 1882.5 C 2593.866 1879.326 2594.974 1874.084 2591.5 1872 L 2591.5 1872 L 2491 1871.5 L 2491.5 1782 Z " fill="rgb(23,23,23)"/><path d=" M 2792.5 1782 L 2793 1872.5 L 2690.5 1873 L 2690.5 1872 L 2792 1871.5 L 2792.5 1782 Z " fill="rgb(137,137,137)"/><path d=" M 1219.5 1866 Q 1279.577 1858.923 1306 1885.5 Q 1324.353 1908.147 1323 1950.5 L 1323 2015.5 L 1323 2251.5 Q 1322.304 2293.304 1301.5 2315 Q 1274.846 2337.846 1218.5 2331 L 1218 1867.5 L 1219.5 1866 Z " fill="rgb(253,253,253)"/><path d=" M 2491.5 1872 L 2566.5 1872 L 2585.5 1872 C 2587.867 1871.408 2591.644 1870.788 2593 1873.5 L 2593 1873.5 L 2592.5 2415 L 2591.5 1873 L 2516.5 1873 L 2497.5 1873 C 2496.532 1873.207 2490.458 1874.606 2491.5 1872 L 2491.5 1872 Z " fill="rgb(137,137,137)"/><path d=" M 898.5 1875 L 901 1875.5 C 910.592 1969.121 922.498 2062.511 937 2155.5 L 937 2155.5 L 864.5 2156 L 864 2149.5 C 878.458 2058.404 889.824 1966.824 898.5 1875 L 898.5 1875 Z " fill="rgb(253,253,253)"/><path d=" M 1422.5 1939 L 1423 1950.5 L 1422 1950.5 L 1422.5 1939 Z  M 1323.5 1946 L 1324 2241.5 L 1323 2241.5 L 1323.5 1946 Z  M 2231.5 1968 L 2232 1970.5 L 2230.5 1979 L 2230 1970.5 L 2231.5 1968 Z  M 2231.5 1990 L 2232 2000.5 L 2231 2000.5 L 2231.5 1990 Z  M 2232.5 2015 L 2233 2032.5 L 2232 2032.5 L 2232.5 2015 Z  M 2233.5 2058 L 2234 2112.5 L 2233 2112.5 L 2233.5 2058 Z  M 2360.5 2083 L 2361 2115.5 L 2360 2115.5 L 2360.5 2083 Z  M 1936.5 2126 L 1937 2324.5 L 1936 2324.5 L 1936.5 2126 Z  M 2361.5 2139 L 2362 2155.5 L 2361 2155.5 L 2361.5 2139 Z  M 863.5 2152 L 864.5 2156 L 937 2156.5 L 863.5 2157 L 863.5 2152 Z  M 2362.5 2171 L 2363 2182.5 L 2362 2182.5 L 2362.5 2171 Z  M 2363.5 2194 L 2364 2203.5 L 2363 2203.5 L 2363.5 2194 Z  M 2233.5 2215 L 2234 2414.5 L 2233 2414.5 L 2233.5 2215 Z  M 1422.5 2231 L 1423 2244.5 L 1422 2244.5 L 1422.5 2231 Z  M 1218.5 2331 L 1259 2331.5 L 1218.5 2332 L 1218.5 2331 Z  M 1269.5 2414 L 1278 2414.5 L 1269.5 2415 L 1269.5 2414 Z " fill-rule="evenodd" fill="rgb(137,137,137)"/></g></g></g></svg>